<mxfile host="Electron" modified="2023-07-10T02:11:56.980Z" agent="Mozilla/5.0 (Macintosh; Intel Mac OS X 10_15_7) AppleWebKit/537.36 (KHTML, like Gecko) draw.io/21.4.0 Chrome/112.0.5615.204 Electron/24.5.1 Safari/537.36" etag="MbPtVkilxNDek-hcm0nn" version="21.4.0" type="device" pages="5">
  <diagram name="Page-1" id="sxx5FVFCmUHuuwaiS7VD">
    <mxGraphModel dx="801" dy="534" grid="1" gridSize="10" guides="1" tooltips="1" connect="1" arrows="1" fold="1" page="1" pageScale="1" pageWidth="827" pageHeight="1169" math="0" shadow="0">
      <root>
        <mxCell id="0" />
        <mxCell id="1" parent="0" />
        <mxCell id="eNRJMYx2nh6S-fLK5otT-12" value="" style="rounded=0;whiteSpace=wrap;html=1;" vertex="1" parent="1">
          <mxGeometry x="310" y="350" width="580" height="280" as="geometry" />
        </mxCell>
        <mxCell id="eNRJMYx2nh6S-fLK5otT-8" style="edgeStyle=orthogonalEdgeStyle;rounded=0;orthogonalLoop=1;jettySize=auto;html=1;entryX=0.5;entryY=0;entryDx=0;entryDy=0;" edge="1" parent="1" source="eNRJMYx2nh6S-fLK5otT-5" target="eNRJMYx2nh6S-fLK5otT-3">
          <mxGeometry relative="1" as="geometry" />
        </mxCell>
        <mxCell id="eNRJMYx2nh6S-fLK5otT-1" value="docker registry" style="shape=cylinder3;whiteSpace=wrap;html=1;boundedLbl=1;backgroundOutline=1;size=6.931034482758662;fontStyle=1;fontSize=16;fillColor=#1ba1e2;fontColor=#ffffff;strokeColor=#006EAF;" vertex="1" parent="1">
          <mxGeometry x="150" y="140" width="100" height="90" as="geometry" />
        </mxCell>
        <mxCell id="eNRJMYx2nh6S-fLK5otT-2" value="https://hub.docker.com" style="text;html=1;strokeColor=none;fillColor=none;align=center;verticalAlign=middle;whiteSpace=wrap;rounded=0;fontStyle=1" vertex="1" parent="1">
          <mxGeometry x="130" y="230" width="140" height="30" as="geometry" />
        </mxCell>
        <mxCell id="eNRJMYx2nh6S-fLK5otT-15" style="edgeStyle=orthogonalEdgeStyle;rounded=0;orthogonalLoop=1;jettySize=auto;html=1;" edge="1" parent="1" source="eNRJMYx2nh6S-fLK5otT-3" target="eNRJMYx2nh6S-fLK5otT-14">
          <mxGeometry relative="1" as="geometry" />
        </mxCell>
        <mxCell id="eNRJMYx2nh6S-fLK5otT-3" value="httpd" style="rounded=0;whiteSpace=wrap;html=1;fillColor=#d5e8d4;strokeColor=#82b366;" vertex="1" parent="1">
          <mxGeometry x="355" y="430" width="90" height="30" as="geometry" />
        </mxCell>
        <mxCell id="eNRJMYx2nh6S-fLK5otT-9" value="" style="edgeStyle=orthogonalEdgeStyle;rounded=0;orthogonalLoop=1;jettySize=auto;html=1;entryX=0.5;entryY=0;entryDx=0;entryDy=0;" edge="1" parent="1" source="eNRJMYx2nh6S-fLK5otT-10" target="eNRJMYx2nh6S-fLK5otT-5">
          <mxGeometry relative="1" as="geometry">
            <mxPoint x="290" y="245" as="sourcePoint" />
            <mxPoint x="435" y="430" as="targetPoint" />
          </mxGeometry>
        </mxCell>
        <mxCell id="eNRJMYx2nh6S-fLK5otT-5" value="&amp;gt; docker image pull httpd" style="text;html=1;strokeColor=none;fillColor=none;align=center;verticalAlign=middle;whiteSpace=wrap;rounded=0;fontStyle=1" vertex="1" parent="1">
          <mxGeometry x="315" y="375" width="170" height="30" as="geometry" />
        </mxCell>
        <mxCell id="eNRJMYx2nh6S-fLK5otT-11" value="" style="edgeStyle=orthogonalEdgeStyle;rounded=0;orthogonalLoop=1;jettySize=auto;html=1;entryX=0.5;entryY=0;entryDx=0;entryDy=0;" edge="1" parent="1" source="eNRJMYx2nh6S-fLK5otT-1" target="eNRJMYx2nh6S-fLK5otT-10">
          <mxGeometry relative="1" as="geometry">
            <mxPoint x="290" y="245" as="sourcePoint" />
            <mxPoint x="485" y="410" as="targetPoint" />
          </mxGeometry>
        </mxCell>
        <mxCell id="eNRJMYx2nh6S-fLK5otT-10" value="internet" style="ellipse;shape=cloud;whiteSpace=wrap;html=1;" vertex="1" parent="1">
          <mxGeometry x="340" y="230" width="120" height="80" as="geometry" />
        </mxCell>
        <mxCell id="eNRJMYx2nh6S-fLK5otT-13" value="" style="rounded=0;whiteSpace=wrap;html=1;fillColor=#fff2cc;strokeColor=#d6b656;" vertex="1" parent="1">
          <mxGeometry x="760" y="405" width="110" height="80" as="geometry" />
        </mxCell>
        <mxCell id="eNRJMYx2nh6S-fLK5otT-19" style="edgeStyle=orthogonalEdgeStyle;rounded=0;orthogonalLoop=1;jettySize=auto;html=1;" edge="1" parent="1" source="eNRJMYx2nh6S-fLK5otT-14" target="eNRJMYx2nh6S-fLK5otT-13">
          <mxGeometry relative="1" as="geometry" />
        </mxCell>
        <mxCell id="eNRJMYx2nh6S-fLK5otT-14" value="&amp;gt; docker container create httpd&lt;br&gt;&amp;gt; docker container start&amp;nbsp;18f0ce9b93cb" style="text;html=1;strokeColor=none;fillColor=none;align=left;verticalAlign=middle;whiteSpace=wrap;rounded=0;fontStyle=1;spacingLeft=9;" vertex="1" parent="1">
          <mxGeometry x="480" y="405" width="250" height="80" as="geometry" />
        </mxCell>
        <mxCell id="eNRJMYx2nh6S-fLK5otT-21" value="&lt;span style=&quot;color: rgb(0, 0, 0); font-family: Helvetica; font-size: 12px; font-style: normal; font-variant-ligatures: normal; font-variant-caps: normal; font-weight: 700; letter-spacing: normal; orphans: 2; text-indent: 0px; text-transform: none; widows: 2; word-spacing: 0px; -webkit-text-stroke-width: 0px; background-color: rgb(251, 251, 251); text-decoration-thickness: initial; text-decoration-style: initial; text-decoration-color: initial; float: none; display: inline !important;&quot;&gt;18f0ce9b93cb&lt;br&gt;myhttpd&lt;br&gt;&lt;/span&gt;" style="text;whiteSpace=wrap;html=1;align=center;" vertex="1" parent="1">
          <mxGeometry x="760" y="365" width="110" height="35" as="geometry" />
        </mxCell>
        <mxCell id="eNRJMYx2nh6S-fLK5otT-22" value="httpd [80]" style="rounded=0;whiteSpace=wrap;html=1;" vertex="1" parent="1">
          <mxGeometry x="770" y="416" width="90" height="30" as="geometry" />
        </mxCell>
        <mxCell id="eNRJMYx2nh6S-fLK5otT-26" style="edgeStyle=orthogonalEdgeStyle;rounded=0;orthogonalLoop=1;jettySize=auto;html=1;" edge="1" parent="1" source="eNRJMYx2nh6S-fLK5otT-23" target="eNRJMYx2nh6S-fLK5otT-25">
          <mxGeometry relative="1" as="geometry" />
        </mxCell>
        <mxCell id="eNRJMYx2nh6S-fLK5otT-23" value="browser&lt;br&gt;&lt;br&gt;http://localhost:9001" style="rounded=0;whiteSpace=wrap;html=1;" vertex="1" parent="1">
          <mxGeometry x="590" y="517.5" width="135" height="65" as="geometry" />
        </mxCell>
        <mxCell id="eNRJMYx2nh6S-fLK5otT-27" style="edgeStyle=orthogonalEdgeStyle;rounded=0;orthogonalLoop=1;jettySize=auto;html=1;" edge="1" parent="1" source="eNRJMYx2nh6S-fLK5otT-25" target="eNRJMYx2nh6S-fLK5otT-22">
          <mxGeometry relative="1" as="geometry" />
        </mxCell>
        <mxCell id="eNRJMYx2nh6S-fLK5otT-25" value="9001" style="ellipse;whiteSpace=wrap;html=1;aspect=fixed;fontStyle=1;fillColor=#f8cecc;strokeColor=#b85450;" vertex="1" parent="1">
          <mxGeometry x="785" y="520" width="60" height="60" as="geometry" />
        </mxCell>
        <mxCell id="eNRJMYx2nh6S-fLK5otT-28" value="&lt;span style=&quot;color: rgb(0, 0, 0); font-family: Helvetica; font-size: 12px; font-style: normal; font-variant-ligatures: normal; font-variant-caps: normal; font-weight: 700; letter-spacing: normal; orphans: 2; text-indent: 0px; text-transform: none; widows: 2; word-spacing: 0px; -webkit-text-stroke-width: 0px; background-color: rgb(251, 251, 251); text-decoration-thickness: initial; text-decoration-style: initial; text-decoration-color: initial; float: none; display: inline !important;&quot;&gt;Port Forwarding&lt;br&gt;&lt;/span&gt;" style="text;whiteSpace=wrap;html=1;align=center;" vertex="1" parent="1">
          <mxGeometry x="760" y="585" width="110" height="17.5" as="geometry" />
        </mxCell>
        <mxCell id="eNRJMYx2nh6S-fLK5otT-29" value="3306" style="text;whiteSpace=wrap;" vertex="1" parent="1">
          <mxGeometry x="440" y="270" width="60" height="40" as="geometry" />
        </mxCell>
      </root>
    </mxGraphModel>
  </diagram>
  <diagram id="cSW3mCJGaBPUm7ZCizsV" name="Page-2">
    <mxGraphModel dx="710" dy="473" grid="1" gridSize="10" guides="1" tooltips="1" connect="1" arrows="1" fold="1" page="1" pageScale="1" pageWidth="827" pageHeight="1169" math="0" shadow="0">
      <root>
        <mxCell id="0" />
        <mxCell id="1" parent="0" />
        <mxCell id="CWfunzdqJpftwuqHlbdU-1" value="" style="rounded=0;whiteSpace=wrap;html=1;" vertex="1" parent="1">
          <mxGeometry x="310" y="350" width="580" height="280" as="geometry" />
        </mxCell>
        <mxCell id="CWfunzdqJpftwuqHlbdU-2" style="edgeStyle=orthogonalEdgeStyle;rounded=0;orthogonalLoop=1;jettySize=auto;html=1;entryX=0.5;entryY=0;entryDx=0;entryDy=0;" edge="1" parent="1" source="CWfunzdqJpftwuqHlbdU-8" target="CWfunzdqJpftwuqHlbdU-6">
          <mxGeometry relative="1" as="geometry" />
        </mxCell>
        <mxCell id="CWfunzdqJpftwuqHlbdU-3" value="docker registry" style="shape=cylinder3;whiteSpace=wrap;html=1;boundedLbl=1;backgroundOutline=1;size=6.931034482758662;fontStyle=1;fontSize=16;fillColor=#1ba1e2;fontColor=#ffffff;strokeColor=#006EAF;" vertex="1" parent="1">
          <mxGeometry x="150" y="140" width="100" height="90" as="geometry" />
        </mxCell>
        <mxCell id="CWfunzdqJpftwuqHlbdU-4" value="https://hub.docker.com" style="text;html=1;strokeColor=none;fillColor=none;align=center;verticalAlign=middle;whiteSpace=wrap;rounded=0;fontStyle=1" vertex="1" parent="1">
          <mxGeometry x="130" y="230" width="140" height="30" as="geometry" />
        </mxCell>
        <mxCell id="CWfunzdqJpftwuqHlbdU-5" style="edgeStyle=orthogonalEdgeStyle;rounded=0;orthogonalLoop=1;jettySize=auto;html=1;" edge="1" parent="1" source="CWfunzdqJpftwuqHlbdU-6" target="CWfunzdqJpftwuqHlbdU-13">
          <mxGeometry relative="1" as="geometry" />
        </mxCell>
        <mxCell id="CWfunzdqJpftwuqHlbdU-6" value="httpd" style="rounded=0;whiteSpace=wrap;html=1;fillColor=#d5e8d4;strokeColor=#82b366;" vertex="1" parent="1">
          <mxGeometry x="355" y="430" width="90" height="30" as="geometry" />
        </mxCell>
        <mxCell id="CWfunzdqJpftwuqHlbdU-7" value="" style="edgeStyle=orthogonalEdgeStyle;rounded=0;orthogonalLoop=1;jettySize=auto;html=1;entryX=0.5;entryY=0;entryDx=0;entryDy=0;" edge="1" parent="1" source="CWfunzdqJpftwuqHlbdU-10" target="CWfunzdqJpftwuqHlbdU-8">
          <mxGeometry relative="1" as="geometry">
            <mxPoint x="290" y="245" as="sourcePoint" />
            <mxPoint x="435" y="430" as="targetPoint" />
          </mxGeometry>
        </mxCell>
        <mxCell id="CWfunzdqJpftwuqHlbdU-8" value="&amp;gt; docker image pull httpd" style="text;html=1;strokeColor=none;fillColor=none;align=center;verticalAlign=middle;whiteSpace=wrap;rounded=0;fontStyle=1" vertex="1" parent="1">
          <mxGeometry x="315" y="375" width="170" height="30" as="geometry" />
        </mxCell>
        <mxCell id="CWfunzdqJpftwuqHlbdU-9" value="" style="edgeStyle=orthogonalEdgeStyle;rounded=0;orthogonalLoop=1;jettySize=auto;html=1;entryX=0.5;entryY=0;entryDx=0;entryDy=0;" edge="1" parent="1" source="CWfunzdqJpftwuqHlbdU-3" target="CWfunzdqJpftwuqHlbdU-10">
          <mxGeometry relative="1" as="geometry">
            <mxPoint x="290" y="245" as="sourcePoint" />
            <mxPoint x="485" y="410" as="targetPoint" />
          </mxGeometry>
        </mxCell>
        <mxCell id="CWfunzdqJpftwuqHlbdU-10" value="internet" style="ellipse;shape=cloud;whiteSpace=wrap;html=1;" vertex="1" parent="1">
          <mxGeometry x="340" y="230" width="120" height="80" as="geometry" />
        </mxCell>
        <mxCell id="CWfunzdqJpftwuqHlbdU-11" value="" style="rounded=0;whiteSpace=wrap;html=1;fillColor=#fff2cc;strokeColor=#d6b656;" vertex="1" parent="1">
          <mxGeometry x="760" y="405" width="110" height="80" as="geometry" />
        </mxCell>
        <mxCell id="CWfunzdqJpftwuqHlbdU-12" style="edgeStyle=orthogonalEdgeStyle;rounded=0;orthogonalLoop=1;jettySize=auto;html=1;" edge="1" parent="1" source="CWfunzdqJpftwuqHlbdU-13" target="CWfunzdqJpftwuqHlbdU-11">
          <mxGeometry relative="1" as="geometry" />
        </mxCell>
        <mxCell id="CWfunzdqJpftwuqHlbdU-13" value="&amp;gt;&amp;nbsp;docker container run -itd --name mysql -p 7005:3306 -e MYSQL_ROOT_PASSWORD=root mysql" style="text;html=1;strokeColor=none;fillColor=none;align=left;verticalAlign=middle;whiteSpace=wrap;rounded=0;fontStyle=1;spacingLeft=9;" vertex="1" parent="1">
          <mxGeometry x="480" y="405" width="250" height="80" as="geometry" />
        </mxCell>
        <mxCell id="CWfunzdqJpftwuqHlbdU-14" value="&lt;span style=&quot;color: rgb(0, 0, 0); font-family: Helvetica; font-size: 12px; font-style: normal; font-variant-ligatures: normal; font-variant-caps: normal; font-weight: 700; letter-spacing: normal; orphans: 2; text-indent: 0px; text-transform: none; widows: 2; word-spacing: 0px; -webkit-text-stroke-width: 0px; background-color: rgb(251, 251, 251); text-decoration-thickness: initial; text-decoration-style: initial; text-decoration-color: initial; float: none; display: inline !important;&quot;&gt;18f0ce9b93cb&lt;br&gt;mysql&lt;br&gt;&lt;/span&gt;" style="text;whiteSpace=wrap;html=1;align=center;" vertex="1" parent="1">
          <mxGeometry x="760" y="365" width="110" height="35" as="geometry" />
        </mxCell>
        <mxCell id="CWfunzdqJpftwuqHlbdU-15" value="mysql [3306]" style="rounded=0;whiteSpace=wrap;html=1;" vertex="1" parent="1">
          <mxGeometry x="770" y="416" width="90" height="30" as="geometry" />
        </mxCell>
        <mxCell id="CWfunzdqJpftwuqHlbdU-23" style="edgeStyle=orthogonalEdgeStyle;rounded=0;orthogonalLoop=1;jettySize=auto;html=1;" edge="1" parent="1" source="CWfunzdqJpftwuqHlbdU-17" target="CWfunzdqJpftwuqHlbdU-19">
          <mxGeometry relative="1" as="geometry" />
        </mxCell>
        <mxCell id="CWfunzdqJpftwuqHlbdU-17" value="express application" style="rounded=0;whiteSpace=wrap;html=1;" vertex="1" parent="1">
          <mxGeometry x="590" y="517.5" width="135" height="65" as="geometry" />
        </mxCell>
        <mxCell id="CWfunzdqJpftwuqHlbdU-18" style="edgeStyle=orthogonalEdgeStyle;rounded=0;orthogonalLoop=1;jettySize=auto;html=1;" edge="1" parent="1" source="CWfunzdqJpftwuqHlbdU-19" target="CWfunzdqJpftwuqHlbdU-15">
          <mxGeometry relative="1" as="geometry" />
        </mxCell>
        <mxCell id="CWfunzdqJpftwuqHlbdU-19" value="7005" style="ellipse;whiteSpace=wrap;html=1;aspect=fixed;fontStyle=1;fillColor=#f8cecc;strokeColor=#b85450;" vertex="1" parent="1">
          <mxGeometry x="785" y="520" width="60" height="60" as="geometry" />
        </mxCell>
        <mxCell id="CWfunzdqJpftwuqHlbdU-20" value="&lt;span style=&quot;color: rgb(0, 0, 0); font-family: Helvetica; font-size: 12px; font-style: normal; font-variant-ligatures: normal; font-variant-caps: normal; font-weight: 700; letter-spacing: normal; orphans: 2; text-indent: 0px; text-transform: none; widows: 2; word-spacing: 0px; -webkit-text-stroke-width: 0px; background-color: rgb(251, 251, 251); text-decoration-thickness: initial; text-decoration-style: initial; text-decoration-color: initial; float: none; display: inline !important;&quot;&gt;Port Forwarding&lt;br&gt;&lt;/span&gt;" style="text;whiteSpace=wrap;html=1;align=center;" vertex="1" parent="1">
          <mxGeometry x="760" y="585" width="110" height="17.5" as="geometry" />
        </mxCell>
      </root>
    </mxGraphModel>
  </diagram>
  <diagram id="DwYD4p1SKn8rIeB1M95D" name="Page-3">
    <mxGraphModel dx="753" dy="502" grid="1" gridSize="10" guides="1" tooltips="1" connect="1" arrows="1" fold="1" page="1" pageScale="1" pageWidth="827" pageHeight="1169" math="0" shadow="0">
      <root>
        <mxCell id="0" />
        <mxCell id="1" parent="0" />
        <mxCell id="5Bj7-M85FOAhT-jCLr8y-18" value="" style="rounded=0;whiteSpace=wrap;html=1;" vertex="1" parent="1">
          <mxGeometry x="104.5" y="300" width="360" height="80" as="geometry" />
        </mxCell>
        <mxCell id="5Bj7-M85FOAhT-jCLr8y-1" value="Express" style="rounded=0;whiteSpace=wrap;html=1;" vertex="1" parent="1">
          <mxGeometry x="210" y="100" width="100" height="40" as="geometry" />
        </mxCell>
        <mxCell id="5Bj7-M85FOAhT-jCLr8y-2" value="MySQL" style="rounded=0;whiteSpace=wrap;html=1;" vertex="1" parent="1">
          <mxGeometry x="359" y="100" width="100" height="40" as="geometry" />
        </mxCell>
        <mxCell id="5Bj7-M85FOAhT-jCLr8y-4" value="User" style="rounded=0;whiteSpace=wrap;html=1;" vertex="1" parent="1">
          <mxGeometry x="70" y="100" width="100" height="40" as="geometry" />
        </mxCell>
        <mxCell id="5Bj7-M85FOAhT-jCLr8y-5" value="User" style="rounded=0;whiteSpace=wrap;html=1;" vertex="1" parent="1">
          <mxGeometry x="80" y="110" width="100" height="40" as="geometry" />
        </mxCell>
        <mxCell id="5Bj7-M85FOAhT-jCLr8y-6" value="Express" style="rounded=0;whiteSpace=wrap;html=1;" vertex="1" parent="1">
          <mxGeometry x="220" y="110" width="100" height="40" as="geometry" />
        </mxCell>
        <mxCell id="5Bj7-M85FOAhT-jCLr8y-7" value="MySQL" style="rounded=0;whiteSpace=wrap;html=1;" vertex="1" parent="1">
          <mxGeometry x="369" y="110" width="100" height="40" as="geometry" />
        </mxCell>
        <mxCell id="5Bj7-M85FOAhT-jCLr8y-10" style="edgeStyle=orthogonalEdgeStyle;rounded=0;orthogonalLoop=1;jettySize=auto;html=1;entryX=0;entryY=0.5;entryDx=0;entryDy=0;entryPerimeter=0;" edge="1" parent="1" source="5Bj7-M85FOAhT-jCLr8y-8" target="5Bj7-M85FOAhT-jCLr8y-9">
          <mxGeometry relative="1" as="geometry" />
        </mxCell>
        <mxCell id="5Bj7-M85FOAhT-jCLr8y-8" value="MySQL" style="rounded=0;whiteSpace=wrap;html=1;" vertex="1" parent="1">
          <mxGeometry x="379" y="120" width="100" height="40" as="geometry" />
        </mxCell>
        <mxCell id="5Bj7-M85FOAhT-jCLr8y-9" value="volume" style="shape=cylinder3;whiteSpace=wrap;html=1;boundedLbl=1;backgroundOutline=1;size=6.181818181818201;" vertex="1" parent="1">
          <mxGeometry x="540" y="110" width="60" height="60" as="geometry" />
        </mxCell>
        <mxCell id="5Bj7-M85FOAhT-jCLr8y-11" value="Express" style="rounded=0;whiteSpace=wrap;html=1;" vertex="1" parent="1">
          <mxGeometry x="230" y="120" width="100" height="40" as="geometry" />
        </mxCell>
        <mxCell id="5Bj7-M85FOAhT-jCLr8y-13" value="User" style="rounded=0;whiteSpace=wrap;html=1;" vertex="1" parent="1">
          <mxGeometry x="90" y="120" width="100" height="40" as="geometry" />
        </mxCell>
        <mxCell id="5Bj7-M85FOAhT-jCLr8y-23" style="edgeStyle=orthogonalEdgeStyle;rounded=0;orthogonalLoop=1;jettySize=auto;html=1;entryX=0;entryY=0;entryDx=0;entryDy=41.9090909090909;entryPerimeter=0;" edge="1" parent="1" source="5Bj7-M85FOAhT-jCLr8y-14" target="5Bj7-M85FOAhT-jCLr8y-19">
          <mxGeometry relative="1" as="geometry" />
        </mxCell>
        <mxCell id="5Bj7-M85FOAhT-jCLr8y-14" value="" style="rounded=0;whiteSpace=wrap;html=1;" vertex="1" parent="1">
          <mxGeometry x="119" y="310" width="360" height="80" as="geometry" />
        </mxCell>
        <mxCell id="5Bj7-M85FOAhT-jCLr8y-15" value="MySQL" style="rounded=0;whiteSpace=wrap;html=1;" vertex="1" parent="1">
          <mxGeometry x="364.5" y="330" width="100" height="40" as="geometry" />
        </mxCell>
        <mxCell id="5Bj7-M85FOAhT-jCLr8y-16" value="Express" style="rounded=0;whiteSpace=wrap;html=1;" vertex="1" parent="1">
          <mxGeometry x="250" y="330" width="100" height="40" as="geometry" />
        </mxCell>
        <mxCell id="5Bj7-M85FOAhT-jCLr8y-17" value="User" style="rounded=0;whiteSpace=wrap;html=1;" vertex="1" parent="1">
          <mxGeometry x="140" y="330" width="100" height="40" as="geometry" />
        </mxCell>
        <mxCell id="5Bj7-M85FOAhT-jCLr8y-19" value="volume" style="shape=cylinder3;whiteSpace=wrap;html=1;boundedLbl=1;backgroundOutline=1;size=6.181818181818201;" vertex="1" parent="1">
          <mxGeometry x="530" y="309" width="60" height="60" as="geometry" />
        </mxCell>
        <mxCell id="5Bj7-M85FOAhT-jCLr8y-20" value="volume" style="shape=cylinder3;whiteSpace=wrap;html=1;boundedLbl=1;backgroundOutline=1;size=6.181818181818201;" vertex="1" parent="1">
          <mxGeometry x="540" y="319" width="60" height="60" as="geometry" />
        </mxCell>
        <mxCell id="5Bj7-M85FOAhT-jCLr8y-21" value="volume" style="shape=cylinder3;whiteSpace=wrap;html=1;boundedLbl=1;backgroundOutline=1;size=6.181818181818201;" vertex="1" parent="1">
          <mxGeometry x="550" y="329" width="60" height="60" as="geometry" />
        </mxCell>
        <mxCell id="5Bj7-M85FOAhT-jCLr8y-24" value="Pod" style="text;html=1;strokeColor=none;fillColor=none;align=left;verticalAlign=middle;whiteSpace=wrap;rounded=0;fontStyle=1;fontSize=15;" vertex="1" parent="1">
          <mxGeometry x="104.5" y="260" width="60" height="30" as="geometry" />
        </mxCell>
        <mxCell id="5Bj7-M85FOAhT-jCLr8y-25" value="Container" style="text;html=1;strokeColor=none;fillColor=none;align=left;verticalAlign=middle;whiteSpace=wrap;rounded=0;fontStyle=1;fontSize=15;" vertex="1" parent="1">
          <mxGeometry x="70" y="60" width="60" height="30" as="geometry" />
        </mxCell>
        <mxCell id="5Bj7-M85FOAhT-jCLr8y-26" value="Container" style="text;html=1;strokeColor=none;fillColor=none;align=left;verticalAlign=middle;whiteSpace=wrap;rounded=0;fontStyle=1;fontSize=15;" vertex="1" parent="1">
          <mxGeometry x="210" y="60" width="60" height="30" as="geometry" />
        </mxCell>
        <mxCell id="5Bj7-M85FOAhT-jCLr8y-27" value="Container" style="text;html=1;strokeColor=none;fillColor=none;align=left;verticalAlign=middle;whiteSpace=wrap;rounded=0;fontStyle=1;fontSize=15;" vertex="1" parent="1">
          <mxGeometry x="354" y="60" width="60" height="30" as="geometry" />
        </mxCell>
      </root>
    </mxGraphModel>
  </diagram>
  <diagram id="mYA8x4DzlVKNpGZE2WCI" name="Page-4">
    <mxGraphModel dx="857" dy="571" grid="1" gridSize="10" guides="1" tooltips="1" connect="1" arrows="1" fold="1" page="1" pageScale="1" pageWidth="827" pageHeight="1169" math="0" shadow="0">
      <root>
        <mxCell id="0" />
        <mxCell id="1" parent="0" />
        <mxCell id="ANRGTqrKiU3o8B95tIgn-30" value="" style="rounded=0;whiteSpace=wrap;html=1;" vertex="1" parent="1">
          <mxGeometry x="90" y="250" width="630" height="520" as="geometry" />
        </mxCell>
        <mxCell id="YQRpKFt5jbzcC58EgMRu-1" value="" style="rounded=0;whiteSpace=wrap;html=1;fillColor=#d5e8d4;strokeColor=#82b366;" vertex="1" parent="1">
          <mxGeometry x="245" y="520" width="190" height="190" as="geometry" />
        </mxCell>
        <mxCell id="ANRGTqrKiU3o8B95tIgn-2" value="" style="rounded=0;whiteSpace=wrap;html=1;fillColor=#ffe6cc;strokeColor=#d79b00;" vertex="1" parent="1">
          <mxGeometry x="265" y="570" width="150" height="120" as="geometry" />
        </mxCell>
        <mxCell id="ANRGTqrKiU3o8B95tIgn-3" value="" style="group" vertex="1" connectable="0" parent="1">
          <mxGeometry x="290" y="608" width="100" height="64" as="geometry" />
        </mxCell>
        <mxCell id="YQRpKFt5jbzcC58EgMRu-2" value="apache" style="rounded=0;whiteSpace=wrap;html=1;fontSize=15;fontStyle=1" vertex="1" parent="ANRGTqrKiU3o8B95tIgn-3">
          <mxGeometry y="4" width="100" height="60" as="geometry" />
        </mxCell>
        <mxCell id="ANRGTqrKiU3o8B95tIgn-1" value="80" style="text;html=1;strokeColor=none;fillColor=none;align=left;verticalAlign=middle;whiteSpace=wrap;rounded=0;fontStyle=1;fontSize=15;" vertex="1" parent="ANRGTqrKiU3o8B95tIgn-3">
          <mxGeometry x="77" width="20" height="30" as="geometry" />
        </mxCell>
        <mxCell id="ANRGTqrKiU3o8B95tIgn-5" value="80" style="text;html=1;strokeColor=none;fillColor=none;align=right;verticalAlign=middle;whiteSpace=wrap;rounded=0;fontStyle=1;fontSize=17;spacingRight=5;" vertex="1" parent="1">
          <mxGeometry x="355" y="570" width="60" height="30" as="geometry" />
        </mxCell>
        <mxCell id="ANRGTqrKiU3o8B95tIgn-6" value="Pod" style="text;html=1;strokeColor=none;fillColor=none;align=left;verticalAlign=middle;whiteSpace=wrap;rounded=0;fontStyle=1;fontSize=17;spacingRight=5;" vertex="1" parent="1">
          <mxGeometry x="245" y="710" width="60" height="30" as="geometry" />
        </mxCell>
        <mxCell id="ANRGTqrKiU3o8B95tIgn-9" style="edgeStyle=orthogonalEdgeStyle;rounded=0;orthogonalLoop=1;jettySize=auto;html=1;entryX=0.455;entryY=0.113;entryDx=0;entryDy=0;entryPerimeter=0;" edge="1" parent="1" source="ANRGTqrKiU3o8B95tIgn-7" target="ANRGTqrKiU3o8B95tIgn-8">
          <mxGeometry relative="1" as="geometry">
            <Array as="points">
              <mxPoint x="450" y="139" />
            </Array>
          </mxGeometry>
        </mxCell>
        <mxCell id="ANRGTqrKiU3o8B95tIgn-7" value="client" style="rounded=0;whiteSpace=wrap;html=1;fontStyle=1;fontSize=16;" vertex="1" parent="1">
          <mxGeometry x="405" y="50" width="90" height="49.5" as="geometry" />
        </mxCell>
        <mxCell id="ANRGTqrKiU3o8B95tIgn-39" style="edgeStyle=orthogonalEdgeStyle;rounded=0;orthogonalLoop=1;jettySize=auto;html=1;entryX=0.5;entryY=0;entryDx=0;entryDy=0;" edge="1" parent="1" source="ANRGTqrKiU3o8B95tIgn-8" target="ANRGTqrKiU3o8B95tIgn-45">
          <mxGeometry relative="1" as="geometry" />
        </mxCell>
        <mxCell id="ANRGTqrKiU3o8B95tIgn-8" value="" style="ellipse;shape=cloud;whiteSpace=wrap;html=1;" vertex="1" parent="1">
          <mxGeometry x="390" y="130" width="120" height="80" as="geometry" />
        </mxCell>
        <mxCell id="ANRGTqrKiU3o8B95tIgn-11" value="10.244.10.4" style="text;html=1;strokeColor=none;fillColor=none;align=right;verticalAlign=middle;whiteSpace=wrap;rounded=0;fontStyle=1;fontSize=14;" vertex="1" parent="1">
          <mxGeometry x="355" y="710" width="80" height="30" as="geometry" />
        </mxCell>
        <mxCell id="ANRGTqrKiU3o8B95tIgn-12" value="80" style="text;html=1;strokeColor=none;fillColor=none;align=right;verticalAlign=middle;whiteSpace=wrap;rounded=0;fontStyle=1;fontSize=17;spacingRight=5;" vertex="1" parent="1">
          <mxGeometry x="375" y="520" width="60" height="30" as="geometry" />
        </mxCell>
        <mxCell id="ANRGTqrKiU3o8B95tIgn-13" value="" style="rounded=0;whiteSpace=wrap;html=1;fillColor=#d5e8d4;strokeColor=#82b366;" vertex="1" parent="1">
          <mxGeometry x="465" y="520" width="190" height="190" as="geometry" />
        </mxCell>
        <mxCell id="ANRGTqrKiU3o8B95tIgn-14" value="" style="rounded=0;whiteSpace=wrap;html=1;fillColor=#ffe6cc;strokeColor=#d79b00;" vertex="1" parent="1">
          <mxGeometry x="485" y="570" width="150" height="120" as="geometry" />
        </mxCell>
        <mxCell id="ANRGTqrKiU3o8B95tIgn-15" value="" style="group" vertex="1" connectable="0" parent="1">
          <mxGeometry x="510" y="608" width="100" height="64" as="geometry" />
        </mxCell>
        <mxCell id="ANRGTqrKiU3o8B95tIgn-16" value="apache" style="rounded=0;whiteSpace=wrap;html=1;fontSize=15;fontStyle=1" vertex="1" parent="ANRGTqrKiU3o8B95tIgn-15">
          <mxGeometry y="4" width="100" height="60" as="geometry" />
        </mxCell>
        <mxCell id="ANRGTqrKiU3o8B95tIgn-17" value="80" style="text;html=1;strokeColor=none;fillColor=none;align=left;verticalAlign=middle;whiteSpace=wrap;rounded=0;fontStyle=1;fontSize=15;" vertex="1" parent="ANRGTqrKiU3o8B95tIgn-15">
          <mxGeometry x="77" width="20" height="30" as="geometry" />
        </mxCell>
        <mxCell id="ANRGTqrKiU3o8B95tIgn-18" value="80" style="text;html=1;strokeColor=none;fillColor=none;align=right;verticalAlign=middle;whiteSpace=wrap;rounded=0;fontStyle=1;fontSize=17;spacingRight=5;" vertex="1" parent="1">
          <mxGeometry x="575" y="570" width="60" height="30" as="geometry" />
        </mxCell>
        <mxCell id="ANRGTqrKiU3o8B95tIgn-19" value="Pod" style="text;html=1;strokeColor=none;fillColor=none;align=left;verticalAlign=middle;whiteSpace=wrap;rounded=0;fontStyle=1;fontSize=17;spacingRight=5;" vertex="1" parent="1">
          <mxGeometry x="465" y="710" width="60" height="30" as="geometry" />
        </mxCell>
        <mxCell id="ANRGTqrKiU3o8B95tIgn-20" value="10.244.10.5" style="text;html=1;strokeColor=none;fillColor=none;align=right;verticalAlign=middle;whiteSpace=wrap;rounded=0;fontStyle=1;fontSize=14;" vertex="1" parent="1">
          <mxGeometry x="575" y="710" width="80" height="30" as="geometry" />
        </mxCell>
        <mxCell id="ANRGTqrKiU3o8B95tIgn-21" value="80" style="text;html=1;strokeColor=none;fillColor=none;align=right;verticalAlign=middle;whiteSpace=wrap;rounded=0;fontStyle=1;fontSize=17;spacingRight=5;" vertex="1" parent="1">
          <mxGeometry x="595" y="520" width="60" height="30" as="geometry" />
        </mxCell>
        <mxCell id="ANRGTqrKiU3o8B95tIgn-27" style="edgeStyle=orthogonalEdgeStyle;rounded=0;orthogonalLoop=1;jettySize=auto;html=1;entryX=0.377;entryY=0.082;entryDx=0;entryDy=0;entryPerimeter=0;" edge="1" parent="1" source="ANRGTqrKiU3o8B95tIgn-22" target="ANRGTqrKiU3o8B95tIgn-25">
          <mxGeometry relative="1" as="geometry" />
        </mxCell>
        <mxCell id="ANRGTqrKiU3o8B95tIgn-28" style="edgeStyle=orthogonalEdgeStyle;rounded=0;orthogonalLoop=1;jettySize=auto;html=1;entryX=0.5;entryY=0;entryDx=0;entryDy=0;" edge="1" parent="1" source="ANRGTqrKiU3o8B95tIgn-22" target="ANRGTqrKiU3o8B95tIgn-26">
          <mxGeometry relative="1" as="geometry" />
        </mxCell>
        <mxCell id="ANRGTqrKiU3o8B95tIgn-22" value="ReplicaSet" style="rounded=0;whiteSpace=wrap;html=1;fontStyle=1;fontSize=16;fillColor=#dae8fc;strokeColor=#6c8ebf;" vertex="1" parent="1">
          <mxGeometry x="130" y="450" width="135" height="50" as="geometry" />
        </mxCell>
        <mxCell id="ANRGTqrKiU3o8B95tIgn-25" value="type: frontend" style="text;html=1;strokeColor=none;fillColor=none;align=center;verticalAlign=middle;whiteSpace=wrap;rounded=0;fontStyle=1;fontSize=14;spacingRight=5;fontColor=#FF0000;" vertex="1" parent="1">
          <mxGeometry x="280" y="520" width="120" height="30" as="geometry" />
        </mxCell>
        <mxCell id="ANRGTqrKiU3o8B95tIgn-26" value="type: frontend" style="text;html=1;strokeColor=none;fillColor=none;align=center;verticalAlign=middle;whiteSpace=wrap;rounded=0;fontStyle=1;fontSize=14;spacingRight=5;fontColor=#FF0000;" vertex="1" parent="1">
          <mxGeometry x="500" y="520" width="120" height="30" as="geometry" />
        </mxCell>
        <mxCell id="ANRGTqrKiU3o8B95tIgn-36" style="edgeStyle=orthogonalEdgeStyle;rounded=0;orthogonalLoop=1;jettySize=auto;html=1;entryX=0;entryY=0.5;entryDx=0;entryDy=0;" edge="1" parent="1" source="ANRGTqrKiU3o8B95tIgn-29" target="ANRGTqrKiU3o8B95tIgn-33">
          <mxGeometry relative="1" as="geometry">
            <Array as="points">
              <mxPoint x="740" y="380" />
              <mxPoint x="740" y="305" />
            </Array>
          </mxGeometry>
        </mxCell>
        <mxCell id="ANRGTqrKiU3o8B95tIgn-37" style="edgeStyle=orthogonalEdgeStyle;rounded=0;orthogonalLoop=1;jettySize=auto;html=1;entryX=0;entryY=0.5;entryDx=0;entryDy=0;" edge="1" parent="1" source="ANRGTqrKiU3o8B95tIgn-29" target="ANRGTqrKiU3o8B95tIgn-34">
          <mxGeometry relative="1" as="geometry">
            <Array as="points">
              <mxPoint x="740" y="380" />
              <mxPoint x="740" y="365" />
            </Array>
          </mxGeometry>
        </mxCell>
        <mxCell id="ANRGTqrKiU3o8B95tIgn-38" style="edgeStyle=orthogonalEdgeStyle;rounded=0;orthogonalLoop=1;jettySize=auto;html=1;entryX=0;entryY=0.5;entryDx=0;entryDy=0;exitX=1;exitY=0.5;exitDx=0;exitDy=0;" edge="1" parent="1" source="ANRGTqrKiU3o8B95tIgn-29" target="ANRGTqrKiU3o8B95tIgn-35">
          <mxGeometry relative="1" as="geometry">
            <Array as="points">
              <mxPoint x="740" y="380" />
              <mxPoint x="740" y="427" />
            </Array>
          </mxGeometry>
        </mxCell>
        <mxCell id="ANRGTqrKiU3o8B95tIgn-40" style="edgeStyle=orthogonalEdgeStyle;rounded=0;orthogonalLoop=1;jettySize=auto;html=1;entryX=0.75;entryY=0;entryDx=0;entryDy=0;" edge="1" parent="1" source="ANRGTqrKiU3o8B95tIgn-29" target="ANRGTqrKiU3o8B95tIgn-25">
          <mxGeometry relative="1" as="geometry" />
        </mxCell>
        <mxCell id="ANRGTqrKiU3o8B95tIgn-41" style="edgeStyle=orthogonalEdgeStyle;rounded=0;orthogonalLoop=1;jettySize=auto;html=1;entryX=0.25;entryY=0;entryDx=0;entryDy=0;exitX=0.5;exitY=1;exitDx=0;exitDy=0;" edge="1" parent="1">
          <mxGeometry relative="1" as="geometry">
            <mxPoint x="449.5" y="437.0000000000001" as="sourcePoint" />
            <mxPoint x="528" y="522" as="targetPoint" />
            <Array as="points">
              <mxPoint x="449" y="462" />
              <mxPoint x="528" y="462" />
            </Array>
          </mxGeometry>
        </mxCell>
        <mxCell id="ANRGTqrKiU3o8B95tIgn-29" value="Service" style="rounded=0;whiteSpace=wrap;html=1;fillColor=#1ba1e2;fontColor=#ffffff;strokeColor=#006EAF;fontStyle=1;fontSize=18;" vertex="1" parent="1">
          <mxGeometry x="245" y="355" width="410" height="50" as="geometry" />
        </mxCell>
        <mxCell id="ANRGTqrKiU3o8B95tIgn-31" value="Kube Cluster" style="text;html=1;strokeColor=none;fillColor=none;align=left;verticalAlign=middle;whiteSpace=wrap;rounded=0;fontStyle=1;fontSize=17;spacingRight=5;" vertex="1" parent="1">
          <mxGeometry x="90" y="210" width="120" height="30" as="geometry" />
        </mxCell>
        <mxCell id="ANRGTqrKiU3o8B95tIgn-32" value="IP: 10.0.0.0 - 255.0.0.0" style="text;html=1;strokeColor=none;fillColor=none;align=right;verticalAlign=middle;whiteSpace=wrap;rounded=0;fontStyle=1;fontSize=17;spacingRight=5;" vertex="1" parent="1">
          <mxGeometry x="530" y="210" width="190" height="30" as="geometry" />
        </mxCell>
        <mxCell id="ANRGTqrKiU3o8B95tIgn-33" value="ClusterIP" style="rounded=0;whiteSpace=wrap;html=1;fillColor=#a20025;fontColor=#ffffff;strokeColor=#6F0000;fontStyle=1" vertex="1" parent="1">
          <mxGeometry x="790" y="285" width="120" height="40" as="geometry" />
        </mxCell>
        <mxCell id="ANRGTqrKiU3o8B95tIgn-34" value="NodePort" style="rounded=0;whiteSpace=wrap;html=1;fillColor=#a20025;fontColor=#ffffff;strokeColor=#6F0000;fontStyle=1" vertex="1" parent="1">
          <mxGeometry x="790" y="345" width="120" height="40" as="geometry" />
        </mxCell>
        <mxCell id="ANRGTqrKiU3o8B95tIgn-35" value="LoadBalancer&lt;br&gt;(cloud)" style="rounded=0;whiteSpace=wrap;html=1;fontStyle=1;fillColor=#a20025;fontColor=#ffffff;strokeColor=#6F0000;" vertex="1" parent="1">
          <mxGeometry x="790" y="405" width="120" height="45" as="geometry" />
        </mxCell>
        <mxCell id="ANRGTqrKiU3o8B95tIgn-42" value="pod facing" style="text;html=1;strokeColor=none;fillColor=none;align=center;verticalAlign=middle;whiteSpace=wrap;rounded=0;fontStyle=1" vertex="1" parent="1">
          <mxGeometry x="580" y="405" width="75" height="30" as="geometry" />
        </mxCell>
        <mxCell id="ANRGTqrKiU3o8B95tIgn-43" value="client facing" style="text;html=1;strokeColor=none;fillColor=none;align=center;verticalAlign=middle;whiteSpace=wrap;rounded=0;fontStyle=1" vertex="1" parent="1">
          <mxGeometry x="580" y="325" width="75" height="30" as="geometry" />
        </mxCell>
        <mxCell id="ANRGTqrKiU3o8B95tIgn-44" value="80" style="rounded=0;whiteSpace=wrap;html=1;fontStyle=1;fillColor=#f0a30a;fontColor=#000000;strokeColor=#BD7000;" vertex="1" parent="1">
          <mxGeometry x="400" y="405" width="103" height="30" as="geometry" />
        </mxCell>
        <mxCell id="ANRGTqrKiU3o8B95tIgn-45" value="80" style="rounded=0;whiteSpace=wrap;html=1;fontStyle=1;fillColor=#f0a30a;fontColor=#000000;strokeColor=#BD7000;" vertex="1" parent="1">
          <mxGeometry x="400" y="325" width="103" height="30" as="geometry" />
        </mxCell>
        <mxCell id="ANRGTqrKiU3o8B95tIgn-47" value="32001" style="rounded=0;whiteSpace=wrap;html=1;fontStyle=1;fillColor=#f0a30a;fontColor=#000000;strokeColor=#BD7000;" vertex="1" parent="1">
          <mxGeometry x="400" y="250" width="103" height="30" as="geometry" />
        </mxCell>
        <mxCell id="ANRGTqrKiU3o8B95tIgn-48" value="targetPort" style="text;html=1;strokeColor=none;fillColor=none;align=right;verticalAlign=middle;whiteSpace=wrap;rounded=0;fontStyle=1" vertex="1" parent="1">
          <mxGeometry x="315" y="405" width="75" height="30" as="geometry" />
        </mxCell>
        <mxCell id="ANRGTqrKiU3o8B95tIgn-49" value="port" style="text;html=1;strokeColor=none;fillColor=none;align=right;verticalAlign=middle;whiteSpace=wrap;rounded=0;fontStyle=1" vertex="1" parent="1">
          <mxGeometry x="315" y="325" width="75" height="30" as="geometry" />
        </mxCell>
        <mxCell id="ANRGTqrKiU3o8B95tIgn-50" value="nodePort" style="text;html=1;strokeColor=none;fillColor=none;align=right;verticalAlign=middle;whiteSpace=wrap;rounded=0;fontStyle=1" vertex="1" parent="1">
          <mxGeometry x="315" y="250" width="75" height="30" as="geometry" />
        </mxCell>
        <mxCell id="ANRGTqrKiU3o8B95tIgn-51" value="Request" style="rounded=0;whiteSpace=wrap;html=1;fontStyle=1;fillColor=#e51400;fontColor=#ffffff;strokeColor=#B20000;" vertex="1" parent="1">
          <mxGeometry x="800" y="625" width="70" height="30" as="geometry" />
        </mxCell>
        <mxCell id="ANRGTqrKiU3o8B95tIgn-52" value="Response" style="rounded=0;whiteSpace=wrap;html=1;fontStyle=1;fillColor=#e51400;fontColor=#ffffff;strokeColor=#B20000;" vertex="1" parent="1">
          <mxGeometry x="510" y="59.75" width="70" height="30" as="geometry" />
        </mxCell>
        <mxCell id="ANRGTqrKiU3o8B95tIgn-53" value="" style="rounded=0;whiteSpace=wrap;html=1;" vertex="1" parent="1">
          <mxGeometry x="1250" y="275" width="330" height="280" as="geometry" />
        </mxCell>
        <mxCell id="ANRGTqrKiU3o8B95tIgn-54" value="" style="rounded=0;whiteSpace=wrap;html=1;fillColor=#1ba1e2;fontColor=#ffffff;strokeColor=#006EAF;" vertex="1" parent="1">
          <mxGeometry x="1270" y="412.5" width="90" height="107.5" as="geometry" />
        </mxCell>
        <mxCell id="ANRGTqrKiU3o8B95tIgn-55" value="" style="rounded=0;whiteSpace=wrap;html=1;fillColor=#1ba1e2;fontColor=#ffffff;strokeColor=#006EAF;" vertex="1" parent="1">
          <mxGeometry x="1370" y="412.5" width="90" height="107.5" as="geometry" />
        </mxCell>
        <mxCell id="ANRGTqrKiU3o8B95tIgn-56" value="" style="rounded=0;whiteSpace=wrap;html=1;fillColor=#1ba1e2;fontColor=#ffffff;strokeColor=#006EAF;" vertex="1" parent="1">
          <mxGeometry x="1470" y="412.5" width="90" height="107.5" as="geometry" />
        </mxCell>
        <mxCell id="ANRGTqrKiU3o8B95tIgn-57" value="" style="rounded=0;whiteSpace=wrap;html=1;fillColor=#e3c800;fontColor=#000000;strokeColor=#B09500;" vertex="1" parent="1">
          <mxGeometry x="1395" y="470" width="40" height="30" as="geometry" />
        </mxCell>
        <mxCell id="ANRGTqrKiU3o8B95tIgn-58" value="" style="rounded=0;whiteSpace=wrap;html=1;fillColor=#e3c800;fontColor=#000000;strokeColor=#B09500;" vertex="1" parent="1">
          <mxGeometry x="1395" y="430" width="40" height="30" as="geometry" />
        </mxCell>
        <mxCell id="ANRGTqrKiU3o8B95tIgn-59" value="" style="rounded=0;whiteSpace=wrap;html=1;fillColor=#e3c800;fontColor=#000000;strokeColor=#B09500;" vertex="1" parent="1">
          <mxGeometry x="1495" y="430" width="40" height="30" as="geometry" />
        </mxCell>
        <mxCell id="ANRGTqrKiU3o8B95tIgn-60" value="master" style="text;html=1;strokeColor=none;fillColor=none;align=center;verticalAlign=middle;whiteSpace=wrap;rounded=0;fontStyle=1" vertex="1" parent="1">
          <mxGeometry x="1285" y="520" width="60" height="30" as="geometry" />
        </mxCell>
        <mxCell id="ANRGTqrKiU3o8B95tIgn-61" value="worker1" style="text;html=1;strokeColor=none;fillColor=none;align=center;verticalAlign=middle;whiteSpace=wrap;rounded=0;fontStyle=1" vertex="1" parent="1">
          <mxGeometry x="1385" y="520" width="60" height="30" as="geometry" />
        </mxCell>
        <mxCell id="ANRGTqrKiU3o8B95tIgn-62" value="worker2" style="text;html=1;strokeColor=none;fillColor=none;align=center;verticalAlign=middle;whiteSpace=wrap;rounded=0;fontStyle=1" vertex="1" parent="1">
          <mxGeometry x="1485" y="520" width="60" height="30" as="geometry" />
        </mxCell>
        <mxCell id="ANRGTqrKiU3o8B95tIgn-63" value="" style="rounded=0;whiteSpace=wrap;html=1;fillColor=#e3c800;fontColor=#000000;strokeColor=#B09500;" vertex="1" parent="1">
          <mxGeometry x="1495" y="470" width="40" height="30" as="geometry" />
        </mxCell>
        <mxCell id="ANRGTqrKiU3o8B95tIgn-64" value="Service" style="rounded=0;whiteSpace=wrap;html=1;fillColor=#fa6800;fontColor=#FFFFFF;strokeColor=#C73500;" vertex="1" parent="1">
          <mxGeometry x="1270" y="340" width="290" height="35" as="geometry" />
        </mxCell>
        <mxCell id="ANRGTqrKiU3o8B95tIgn-65" value="32001" style="rounded=0;whiteSpace=wrap;html=1;fontStyle=1;fillColor=#f0a30a;fontColor=#000000;strokeColor=#BD7000;" vertex="1" parent="1">
          <mxGeometry x="1375" y="275" width="80" height="20" as="geometry" />
        </mxCell>
        <mxCell id="ANRGTqrKiU3o8B95tIgn-67" value="80" style="rounded=0;whiteSpace=wrap;html=1;fontStyle=1;fillColor=#f0a30a;fontColor=#000000;strokeColor=#BD7000;" vertex="1" parent="1">
          <mxGeometry x="1375" y="320" width="80" height="20" as="geometry" />
        </mxCell>
        <mxCell id="ANRGTqrKiU3o8B95tIgn-69" value="80" style="rounded=0;whiteSpace=wrap;html=1;fontStyle=1;fillColor=#f0a30a;fontColor=#000000;strokeColor=#BD7000;" vertex="1" parent="1">
          <mxGeometry x="1375" y="375" width="80" height="20" as="geometry" />
        </mxCell>
        <mxCell id="ANRGTqrKiU3o8B95tIgn-70" value="Kube Cluster" style="text;html=1;strokeColor=none;fillColor=none;align=left;verticalAlign=middle;whiteSpace=wrap;rounded=0;fontStyle=1;fontSize=17;spacingRight=5;" vertex="1" parent="1">
          <mxGeometry x="1360" y="560" width="120" height="30" as="geometry" />
        </mxCell>
      </root>
    </mxGraphModel>
  </diagram>
  <diagram id="b9zaAsSPXIcG7kjAyZU4" name="Page-5">
    <mxGraphModel dx="710" dy="473" grid="1" gridSize="10" guides="1" tooltips="1" connect="1" arrows="1" fold="1" page="1" pageScale="1" pageWidth="827" pageHeight="1169" math="0" shadow="0">
      <root>
        <mxCell id="0" />
        <mxCell id="1" parent="0" />
        <mxCell id="xL7cijZ-h2qom3SBwC_s-1" value="" style="rounded=0;whiteSpace=wrap;html=1;" vertex="1" parent="1">
          <mxGeometry x="530" y="460" width="240" height="180" as="geometry" />
        </mxCell>
        <mxCell id="xL7cijZ-h2qom3SBwC_s-2" value="" style="rounded=0;whiteSpace=wrap;html=1;" vertex="1" parent="1">
          <mxGeometry x="595" y="480" width="110" height="20" as="geometry" />
        </mxCell>
        <mxCell id="xL7cijZ-h2qom3SBwC_s-3" value="" style="rounded=0;whiteSpace=wrap;html=1;" vertex="1" parent="1">
          <mxGeometry x="595" y="510" width="110" height="20" as="geometry" />
        </mxCell>
        <mxCell id="xL7cijZ-h2qom3SBwC_s-4" value="Login" style="rounded=0;whiteSpace=wrap;html=1;" vertex="1" parent="1">
          <mxGeometry x="595" y="560" width="45" height="20" as="geometry" />
        </mxCell>
        <mxCell id="xL7cijZ-h2qom3SBwC_s-5" value="" style="rounded=0;whiteSpace=wrap;html=1;" vertex="1" parent="1">
          <mxGeometry x="530" y="440" width="240" height="20" as="geometry" />
        </mxCell>
        <mxCell id="xL7cijZ-h2qom3SBwC_s-6" value="Browser" style="text;html=1;strokeColor=none;fillColor=none;align=center;verticalAlign=middle;whiteSpace=wrap;rounded=0;fontStyle=1;fontSize=15;" vertex="1" parent="1">
          <mxGeometry x="605" y="640" width="90" height="30" as="geometry" />
        </mxCell>
        <mxCell id="xL7cijZ-h2qom3SBwC_s-9" style="edgeStyle=orthogonalEdgeStyle;rounded=0;orthogonalLoop=1;jettySize=auto;html=1;entryX=0.002;entryY=0.89;entryDx=0;entryDy=0;entryPerimeter=0;" edge="1" parent="1" source="xL7cijZ-h2qom3SBwC_s-8" target="xL7cijZ-h2qom3SBwC_s-1">
          <mxGeometry relative="1" as="geometry" />
        </mxCell>
        <mxCell id="xL7cijZ-h2qom3SBwC_s-8" value="Web Driver" style="rounded=0;whiteSpace=wrap;html=1;" vertex="1" parent="1">
          <mxGeometry x="354" y="600" width="120" height="40" as="geometry" />
        </mxCell>
        <mxCell id="xL7cijZ-h2qom3SBwC_s-10" value="Browser specific" style="text;html=1;strokeColor=none;fillColor=none;align=center;verticalAlign=middle;whiteSpace=wrap;rounded=0;fontStyle=0;fontSize=12;" vertex="1" parent="1">
          <mxGeometry x="349" y="640" width="130" height="30" as="geometry" />
        </mxCell>
        <mxCell id="xL7cijZ-h2qom3SBwC_s-12" style="edgeStyle=orthogonalEdgeStyle;rounded=0;orthogonalLoop=1;jettySize=auto;html=1;entryX=0;entryY=0.5;entryDx=0;entryDy=0;" edge="1" parent="1" source="xL7cijZ-h2qom3SBwC_s-11" target="xL7cijZ-h2qom3SBwC_s-8">
          <mxGeometry relative="1" as="geometry" />
        </mxCell>
        <mxCell id="xL7cijZ-h2qom3SBwC_s-11" value="" style="rounded=0;whiteSpace=wrap;html=1;" vertex="1" parent="1">
          <mxGeometry x="200" y="520" width="120" height="120" as="geometry" />
        </mxCell>
        <mxCell id="xL7cijZ-h2qom3SBwC_s-14" style="edgeStyle=orthogonalEdgeStyle;rounded=0;orthogonalLoop=1;jettySize=auto;html=1;entryX=0;entryY=0.5;entryDx=0;entryDy=0;" edge="1" parent="1" source="xL7cijZ-h2qom3SBwC_s-13" target="xL7cijZ-h2qom3SBwC_s-11">
          <mxGeometry relative="1" as="geometry" />
        </mxCell>
        <mxCell id="xL7cijZ-h2qom3SBwC_s-13" value="" style="rounded=0;whiteSpace=wrap;html=1;" vertex="1" parent="1">
          <mxGeometry x="40" y="520" width="120" height="120" as="geometry" />
        </mxCell>
        <mxCell id="xL7cijZ-h2qom3SBwC_s-15" value="test script" style="text;html=1;strokeColor=none;fillColor=none;align=center;verticalAlign=middle;whiteSpace=wrap;rounded=0;fontStyle=0;fontSize=12;" vertex="1" parent="1">
          <mxGeometry x="40" y="650" width="120" height="30" as="geometry" />
        </mxCell>
        <mxCell id="xL7cijZ-h2qom3SBwC_s-16" value="&lt;span style=&quot;color: rgb(0, 0, 0); font-family: Helvetica; font-size: 12px; font-style: normal; font-variant-ligatures: normal; font-variant-caps: normal; font-weight: 400; letter-spacing: normal; orphans: 2; text-indent: 0px; text-transform: none; widows: 2; word-spacing: 0px; -webkit-text-stroke-width: 0px; background-color: rgb(251, 251, 251); text-decoration-thickness: initial; text-decoration-style: initial; text-decoration-color: initial; float: none; display: inline !important;&quot;&gt;Selenium&lt;/span&gt;" style="text;whiteSpace=wrap;html=1;align=center;" vertex="1" parent="1">
          <mxGeometry x="200" y="650" width="120" height="30" as="geometry" />
        </mxCell>
        <mxCell id="xL7cijZ-h2qom3SBwC_s-17" value="Builder" style="rounded=0;whiteSpace=wrap;html=1;" vertex="1" parent="1">
          <mxGeometry x="210" y="530" width="100" height="30" as="geometry" />
        </mxCell>
      </root>
    </mxGraphModel>
  </diagram>
</mxfile>
